<svg width="29" height="30" viewBox="0 0 29 30" fill="none" xmlns="http://www.w3.org/2000/svg">
<path d="M27.3607 21.3927V8.4327C27.3607 7.2375 26.3959 6.27271 25.2007 6.27271H5.02632C3.83112 6.27271 2.86632 7.2375 2.86632 8.4327V21.3927C2.86632 22.5879 3.83112 23.5527 5.02632 23.5527H25.2007C26.3959 23.5527 27.3607 22.5879 27.3607 21.3927ZM25.4743 8.2743C25.9495 8.7495 25.6903 9.2391 25.4311 9.4839L19.5847 14.8407L25.2007 20.6871C25.3735 20.8887 25.4887 21.2055 25.2871 21.4215C25.0999 21.6519 24.6679 21.6375 24.4807 21.4935L18.1879 16.1223L15.1063 18.9303L12.0391 16.1223L5.74632 21.4935C5.55912 21.6375 5.12712 21.6519 4.93992 21.4215C4.73832 21.2055 4.85352 20.8887 5.02632 20.6871L10.6423 14.8407L4.79592 9.4839C4.53672 9.2391 4.27752 8.7495 4.75272 8.2743C5.22792 7.7991 5.71752 8.0295 6.12072 8.3751L15.1063 15.6327L24.1063 8.3751C24.5095 8.0295 24.9991 7.7991 25.4743 8.2743Z" fill="url(#paint0_linear_1_103)"/>
<defs>
<linearGradient id="paint0_linear_1_103" x1="15.1135" y1="6.27271" x2="15.1135" y2="23.5527" gradientUnits="userSpaceOnUse">
<stop offset="0.4" stop-color="#172B1D"/>
<stop offset="1" stop-color="#4F9160"/>
</linearGradient>
</defs>
</svg>
