<svg width="29" height="30" viewBox="0 0 29 30" fill="none" xmlns="http://www.w3.org/2000/svg">
<g clip-path="url(#clip0_1_121)">
<path d="M22.0492 0.910156H6.74919C3.02127 0.910156 -0.000808716 3.93223 -0.000808716 7.66015V22.9601C-0.000808716 26.688 3.02127 29.7101 6.74919 29.7101H22.0492C25.7771 29.7101 28.7992 26.688 28.7992 22.9601V7.66015C28.7992 3.93223 25.7771 0.910156 22.0492 0.910156Z" fill="url(#paint0_radial_1_121)"/>
<path d="M22.0492 0.910156H6.74919C3.02127 0.910156 -0.000808716 3.93223 -0.000808716 7.66015V22.9601C-0.000808716 26.688 3.02127 29.7101 6.74919 29.7101H22.0492C25.7771 29.7101 28.7992 26.688 28.7992 22.9601V7.66015C28.7992 3.93223 25.7771 0.910156 22.0492 0.910156Z" fill="url(#paint1_radial_1_121)"/>
<path d="M14.3997 4.06104C11.3444 4.06104 10.9609 4.07442 9.76098 4.12899C8.56331 4.18388 7.74577 4.37345 7.03049 4.65166C6.29047 4.93898 5.66283 5.3234 5.03756 5.94889C4.41172 6.57428 4.02731 7.20192 3.73908 7.9416C3.46008 8.6571 3.27029 9.47498 3.21641 10.6721C3.16274 11.8721 3.14868 12.2557 3.14868 15.3111C3.14868 18.3665 3.16218 18.7488 3.21663 19.9487C3.27176 21.1464 3.46132 21.9639 3.73931 22.6792C4.02686 23.4192 4.41127 24.0469 5.03677 24.6721C5.66193 25.298 6.28957 25.6833 7.02903 25.9706C7.74487 26.2488 8.56252 26.4384 9.75997 26.4933C10.96 26.5478 11.3432 26.5612 14.3983 26.5612C17.454 26.5612 17.8362 26.5478 19.0362 26.4933C20.2338 26.4384 21.0523 26.2488 21.7681 25.9706C22.5078 25.6833 23.1345 25.298 23.7596 24.6721C24.3854 24.0469 24.7697 23.4192 25.0581 22.6795C25.3346 21.9639 25.5245 21.1462 25.5807 19.9489C25.6346 18.749 25.6487 18.3665 25.6487 15.3111C25.6487 12.2557 25.6346 11.8723 25.5807 10.6723C25.5245 9.47464 25.3346 8.65722 25.0581 7.94194C24.7697 7.20192 24.3854 6.57428 23.7596 5.94889C23.1339 5.32317 22.508 4.93876 21.7674 4.65177C21.0502 4.37345 20.2323 4.18377 19.0346 4.12899C17.8345 4.07442 17.4525 4.06104 14.3962 4.06104H14.3997ZM13.3905 6.08839C13.69 6.08794 14.0243 6.08839 14.3997 6.08839C17.4036 6.08839 17.7595 6.09919 18.9457 6.15308C20.0426 6.20326 20.6379 6.38652 21.0345 6.54053C21.5595 6.74438 21.9338 6.98817 22.3273 7.38203C22.7211 7.77578 22.9648 8.15074 23.1692 8.67578C23.3232 9.07178 23.5067 9.66713 23.5566 10.764C23.6105 11.95 23.6222 12.3061 23.6222 15.3085C23.6222 18.3109 23.6105 18.6672 23.5566 19.8531C23.5065 20.95 23.3232 21.5453 23.1692 21.9414C22.9653 22.4665 22.7211 22.8403 22.3273 23.2338C21.9336 23.6276 21.5598 23.8712 21.0345 24.0752C20.6384 24.2299 20.0426 24.4127 18.9457 24.4629C17.7597 24.5168 17.4036 24.5285 14.3997 24.5285C11.3957 24.5285 11.0397 24.5168 9.85379 24.4629C8.75692 24.4123 8.16157 24.229 7.76467 24.075C7.23974 23.871 6.86467 23.6273 6.47092 23.2336C6.07717 22.8398 5.83349 22.4658 5.62908 21.9405C5.47507 21.5444 5.29158 20.9491 5.24163 19.8522C5.18774 18.6662 5.17694 18.31 5.17694 15.3057C5.17694 12.3014 5.18774 11.9472 5.24163 10.7612C5.29181 9.66431 5.47507 9.06897 5.62908 8.6724C5.83304 8.14737 6.07717 7.77241 6.47103 7.37866C6.86489 6.98491 7.23974 6.74112 7.76478 6.53682C8.16134 6.38213 8.75692 6.19932 9.85379 6.14892C10.8916 6.10201 11.2938 6.08794 13.3905 6.08558V6.08839ZM20.4049 7.95634C19.6596 7.95634 19.0549 8.56047 19.0549 9.30589C19.0549 10.0512 19.6596 10.6559 20.4049 10.6559C21.1503 10.6559 21.7549 10.0512 21.7549 9.30589C21.7549 8.56058 21.1503 7.95589 20.4049 7.95589V7.95634ZM14.3997 9.5337C11.2092 9.5337 8.62237 12.1205 8.62237 15.3111C8.62237 18.5017 11.2092 21.0873 14.3997 21.0873C17.5903 21.0873 20.1762 18.5017 20.1762 15.3111C20.1762 12.1206 17.5901 9.5337 14.3995 9.5337H14.3997ZM14.3997 11.5611C16.4707 11.5611 18.1498 13.2399 18.1498 15.3111C18.1498 17.3821 16.4707 19.0612 14.3997 19.0612C12.3287 19.0612 10.6497 17.3821 10.6497 15.3111C10.6497 13.2399 12.3286 11.5611 14.3997 11.5611Z" fill="white"/>
</g>
<defs>
<radialGradient id="paint0_radial_1_121" cx="0" cy="0" r="1" gradientUnits="userSpaceOnUse" gradientTransform="translate(7.64919 31.9283) rotate(-90) scale(28.5429 26.5472)">
<stop stop-color="#FFDD55"/>
<stop offset="0.1" stop-color="#FFDD55"/>
<stop offset="0.5" stop-color="#FF543E"/>
<stop offset="1" stop-color="#C837AB"/>
</radialGradient>
<radialGradient id="paint1_radial_1_121" cx="0" cy="0" r="1" gradientUnits="userSpaceOnUse" gradientTransform="translate(-4.82492 2.98477) rotate(78.681) scale(12.7588 52.5924)">
<stop stop-color="#3771C8"/>
<stop offset="0.128" stop-color="#3771C8"/>
<stop offset="1" stop-color="#6600FF" stop-opacity="0"/>
</radialGradient>
<clipPath id="clip0_1_121">
<rect width="28.8" height="28.8" fill="white" transform="translate(0 0.912354)"/>
</clipPath>
</defs>
</svg>
