<svg width="29" height="30" viewBox="0 0 29 30" fill="none" xmlns="http://www.w3.org/2000/svg">
<path d="M19.6325 17.1153C19.7285 16.3233 19.8005 15.5313 19.8005 14.7153C19.8005 13.8993 19.7285 13.1073 19.6325 12.3153H23.6885C23.8805 13.0833 24.0005 13.8873 24.0005 14.7153C24.0005 15.5433 23.8805 16.3473 23.6885 17.1153M17.5085 23.7873C18.2285 22.4553 18.7805 21.0153 19.1645 19.5153H22.7045C21.5419 21.5172 19.6974 23.0337 17.5085 23.7873ZM17.2085 17.1153H11.5925C11.4725 16.3233 11.4005 15.5313 11.4005 14.7153C11.4005 13.8993 11.4725 13.0953 11.5925 12.3153H17.2085C17.3165 13.0953 17.4005 13.8993 17.4005 14.7153C17.4005 15.5313 17.3165 16.3233 17.2085 17.1153ZM14.4005 24.2673C13.4045 22.8273 12.6005 21.2313 12.1085 19.5153H16.6925C16.2005 21.2313 15.3965 22.8273 14.4005 24.2673ZM9.60045 9.91532H6.09645C7.24682 7.90777 9.09004 6.38882 11.2805 5.64333C10.5605 6.97533 10.0205 8.41532 9.60045 9.91532ZM6.09645 19.5153H9.60045C10.0205 21.0153 10.5605 22.4553 11.2805 23.7873C9.09437 23.0341 7.2536 21.5171 6.09645 19.5153ZM5.11245 17.1153C4.92045 16.3473 4.80045 15.5433 4.80045 14.7153C4.80045 13.8873 4.92045 13.0833 5.11245 12.3153H9.16845C9.07245 13.1073 9.00045 13.8993 9.00045 14.7153C9.00045 15.5313 9.07245 16.3233 9.16845 17.1153M14.4005 5.15133C15.3965 6.59133 16.2005 8.19932 16.6925 9.91532H12.1085C12.6005 8.19932 13.4045 6.59133 14.4005 5.15133ZM22.7045 9.91532H19.1645C18.7883 8.42926 18.2322 6.99465 17.5085 5.64333C19.7165 6.39933 21.5525 7.92333 22.7045 9.91532ZM14.4005 2.71533C7.76445 2.71533 2.40045 8.11532 2.40045 14.7153C2.40045 17.8979 3.66473 20.9502 5.91517 23.2006C7.02947 24.3149 8.35234 25.1988 9.80825 25.8019C11.2642 26.4049 12.8246 26.7153 14.4005 26.7153C17.583 26.7153 20.6353 25.451 22.8857 23.2006C25.1362 20.9502 26.4005 17.8979 26.4005 14.7153C26.4005 13.1395 26.0901 11.579 25.487 10.1231C24.884 8.66722 24 7.34435 22.8857 6.23005C21.7714 5.11574 20.4486 4.23183 18.9927 3.62878C17.5367 3.02572 15.9763 2.71533 14.4005 2.71533Z" fill="url(#paint0_linear_1_107)"/>
<defs>
<linearGradient id="paint0_linear_1_107" x1="14.4005" y1="2.71533" x2="14.4005" y2="26.7153" gradientUnits="userSpaceOnUse">
<stop offset="0.4" stop-color="#172B1D"/>
<stop offset="1" stop-color="#4F9160"/>
</linearGradient>
</defs>
</svg>
