<svg width="29" height="30" viewBox="0 0 29 30" fill="none" xmlns="http://www.w3.org/2000/svg">
<path d="M28.1644 5.02211C27.9992 4.15042 27.677 3.35573 27.2298 2.71717C26.7826 2.07861 26.2261 1.61846 25.6156 1.38254C23.3806 0.512207 14.3856 0.512207 14.3856 0.512207C14.3856 0.512207 5.39021 0.538552 3.15525 1.40889C2.54476 1.64482 1.9882 2.10499 1.54101 2.74358C1.09381 3.38217 0.771584 4.1769 0.606407 5.04862C-0.069617 10.7188 -0.331859 19.3589 0.62497 24.8023C0.790164 25.674 1.1124 26.4686 1.5596 27.1072C2.00679 27.7458 2.56333 28.2059 3.17381 28.4418C5.40878 29.3122 14.404 29.3122 14.404 29.3122C14.404 29.3122 23.3991 29.3122 25.6339 28.4418C26.2444 28.2059 26.801 27.7458 27.2482 27.1072C27.6954 26.4687 28.0177 25.674 28.1829 24.8023C28.8959 19.124 29.1156 10.4893 28.1644 5.02211Z" fill="#FF0000"/>
<path d="M11.5221 21.0832L18.9842 14.9119L11.5221 8.74048V21.0832Z" fill="white"/>
</svg>
